<svg version="1.1" id="Layer_1" xmlns="http://www.w3.org/2000/svg" xmlns:xlink="http://www.w3.org/1999/xlink" x="0px" y="0px"
	 width="16px" height="10px" viewBox="0 0 16 10" style="enable-background:new 0 0 16 10;" xml:space="preserve">
<style type="text/css">
	.st0{fill:#FFFFFF;}
</style>
<g>
	<path class="st0" d="M9.5,0h-8C0.7,0,0,0.7,0,1.5v7C0,9.3,0.7,10,1.5,10h8c0.8,0,1.5-0.7,1.5-1.5v-7C11,0.7,10.3,0,9.5,0z"/>
	<path class="st0" d="M15.1,0.9l-3,3c0,0-0.1,0.2-0.1,0.3v1.6c0,0.1,0.1,0.3,0.1,0.4l3,3c0.4,0.3,0.9,0,0.9-0.4V1.2
		C16,0.8,15.5,0.5,15.1,0.9z"/>
</g>
</svg>
