<svg version="1.1" id="Layer_1" xmlns="http://www.w3.org/2000/svg" xmlns:xlink="http://www.w3.org/1999/xlink" x="0px" y="0px"
	 width="90px" height="90px" viewBox="0 0 90 90" style="enable-background:new 0 0 90 90;" xml:space="preserve">
<style type="text/css">
	.st0{fill:#F8F8F8;}
	.st1{fill:#B9B2EE;}
	.st2{fill:#BFBFBF;}
	.st3{fill:#D3D0F9;}
	.st4{fill:#948EEA;}
	.st5{fill:#FFFFFF;}
</style>
<g>
	<path class="st0" d="M86.1,90H3.9C1.7,90,0,88.3,0,86.1V3.9C0,1.7,1.7,0,3.9,0h82.3C88.3,0,90,1.7,90,3.9v82.3
		C90,88.3,88.3,90,86.1,90z"/>
	<path class="st1" d="M90,43.6H0V3.9C0,1.7,1.7,0,3.9,0h82.3C88.3,0,90,1.7,90,3.9V43.6z"/>
	<rect x="25.7" y="48.2" class="st2" width="38.6" height="2"/>
	<rect x="25.7" y="52.2" class="st2" width="38.6" height="2"/>
	<rect x="25.7" y="56.2" class="st2" width="38.6" height="2"/>
	<rect x="25.7" y="60.2" class="st2" width="38.6" height="2"/>
	<rect x="25.7" y="64.2" class="st2" width="38.6" height="2"/>
	<rect x="25.7" y="68.2" class="st2" width="38.6" height="2"/>
	<rect x="25.7" y="72.2" class="st2" width="38.6" height="2"/>
	<rect x="25.7" y="76.2" class="st2" width="38.6" height="2"/>
	<rect x="25.7" y="80.2" class="st2" width="26.9" height="2"/>
	<circle class="st3" cx="12" cy="10.7" r="3"/>
	<polygon class="st4" points="90,43.6 90,4.1 47.2,28.8 37.6,19.7 0,39.7 0,43.6 	"/>
	<rect x="20.3" y="15.7" class="st5" width="49.3" height="4"/>
	<rect x="32.8" y="21.7" class="st5" width="24.4" height="4"/>
	<g>
		<rect x="25" y="29.2" class="st5" width="8.2" height="1.3"/>
		<rect x="35.6" y="29.2" class="st5" width="8.2" height="1.3"/>
		<rect x="46.2" y="29.2" class="st5" width="8.2" height="1.3"/>
		<rect x="56.8" y="29.2" class="st5" width="8.2" height="1.3"/>
	</g>
</g>
</svg>
