<svg version="1.1" id="Layer_1" xmlns="http://www.w3.org/2000/svg" xmlns:xlink="http://www.w3.org/1999/xlink" x="0px" y="0px"
	 width="90px" height="90px" viewBox="0 0 90 90" style="enable-background:new 0 0 90 90;" xml:space="preserve">
<style type="text/css">
	.st0{fill:#F8F8F8;}
	.st1{fill:#BFBFBF;}
	.st2{fill:#989898;}
	.st3{fill:#B9B2EE;}
	.st4{fill:#948EEA;}
	.st5{fill:#D3D0F9;}
</style>
<g>
	<path class="st0" d="M86.1,90H3.9C1.7,90,0,88.3,0,86.1V3.9C0,1.7,1.7,0,3.9,0h82.3C88.3,0,90,1.7,90,3.9v82.3
		C90,88.3,88.3,90,86.1,90z"/>
	<rect x="13" y="56.8" class="st1" width="64" height="2"/>
	<rect x="13" y="60.8" class="st1" width="64" height="2"/>
	<rect x="13" y="64.8" class="st1" width="64" height="2"/>
	<rect x="13" y="68.8" class="st1" width="64" height="2"/>
	<rect x="13" y="72.8" class="st1" width="64" height="2"/>
	<rect x="13" y="76.8" class="st1" width="64" height="2"/>
	<rect x="13" y="80.8" class="st1" width="41.8" height="2"/>
	<g>
		<rect x="13.2" y="5" class="st2" width="44.3" height="4"/>
		<rect x="13.2" y="11" class="st2" width="19.4" height="4"/>
	</g>
	<g>
		<path class="st3" d="M75.7,51.8H14.3c-0.7,0-1.3-0.4-1.3-1v-27c0-0.6,0.6-1,1.3-1h61.4c0.7,0,1.3,0.4,1.3,1v27
			C77,51.4,76.4,51.8,75.7,51.8z"/>
		<path class="st4" d="M46.6,41.7l-6.9-5.4L13,48.2v2.6c0,0.6,0.6,1,1.3,1h61.4c0.7,0,1.3-0.4,1.3-1V27.1L46.6,41.7z"/>
		<circle class="st5" cx="21.5" cy="30.8" r="3"/>
	</g>
	<g>
		<rect x="13.2" y="18" class="st2" width="8.2" height="1.3"/>
		<rect x="23.8" y="18" class="st2" width="8.2" height="1.3"/>
		<rect x="34.4" y="18" class="st2" width="8.2" height="1.3"/>
		<rect x="45" y="18" class="st2" width="8.2" height="1.3"/>
	</g>
</g>
</svg>
