<?xml version="1.0" encoding="utf-8"?>
<!-- Generator: Adobe Illustrator 23.0.4, SVG Export Plug-In . SVG Version: 6.00 Build 0)  -->
<svg version="1.1" id="Layer_1" xmlns="http://www.w3.org/2000/svg" xmlns:xlink="http://www.w3.org/1999/xlink" x="0px" y="0px"
	 width="20px" height="20px" viewBox="0 0 20 20" style="enable-background:new 0 0 20 20;" xml:space="preserve">
<style type="text/css">
	.st0{fill:url(#SVGID_1_);}
	.st1{fill:#FFFFFF;}
</style>
<g>
	
		<linearGradient id="SVGID_1_" gradientUnits="userSpaceOnUse" x1="177.0157" y1="-163.3629" x2="177.0157" y2="-146.6151" gradientTransform="matrix(4.489653e-11 1 1 -4.489653e-11 163.5157 -163.5157)">
		<stop  offset="0" style="stop-color:#FFFFFF"/>
		<stop  offset="1" style="stop-color:#535353"/>
	</linearGradient>
	<polygon class="st0" points="18,20 18,7 0,7 0,20 	"/>
	<path class="st1" d="M16.78,2.08l-3-2c-0.15-0.1-0.35-0.11-0.51-0.02C13.1,0.15,13,0.32,13,0.5v1H4v-1c0-0.18-0.1-0.35-0.26-0.44
		C3.57-0.03,3.38-0.02,3.22,0.08l-3,2C0.08,2.18,0,2.33,0,2.5s0.08,0.32,0.22,0.42l3,2C3.31,4.97,3.4,5,3.5,5
		c0.08,0,0.16-0.02,0.24-0.06C3.9,4.85,4,4.68,4,4.5v-1h9v1c0,0.18,0.1,0.35,0.26,0.44C13.34,4.98,13.42,5,13.5,5
		c0.1,0,0.19-0.03,0.28-0.08l3-2C16.92,2.82,17,2.67,17,2.5S16.92,2.18,16.78,2.08z"/>
</g>
</svg>
