<?xml version="1.0" encoding="utf-8"?>
<!-- Generator: Adobe Illustrator 23.0.4, SVG Export Plug-In . SVG Version: 6.00 Build 0)  -->
<svg version="1.1" id="Layer_1" xmlns="http://www.w3.org/2000/svg" xmlns:xlink="http://www.w3.org/1999/xlink" x="0px" y="0px"
	 width="20px" height="20px" viewBox="0 0 20 20" style="enable-background:new 0 0 20 20;" xml:space="preserve">
<style type="text/css">
	.st0{fill:#FFFFFF;}
	.st1{fill:url(#SVGID_1_);}
</style>
<path class="st0" d="M11.05,13.8c0,2.32,1.56,4.2,3.47,4.2c1.92,0,3.47-1.89,3.47-4.2c0-1.92-1.46-4.89-3.47-8.02
	C12.55,8.84,11.05,11.88,11.05,13.8z"/>
<linearGradient id="SVGID_1_" gradientUnits="userSpaceOnUse" x1="10" y1="1.781" x2="10" y2="18.8777">
	<stop  offset="0" style="stop-color:#FFFFFF"/>
	<stop  offset="1" style="stop-color:#535353"/>
</linearGradient>
<path class="st1" d="M0,1.62V20h14.53c-3.02,0-5.47-2.78-5.47-6.2c0-2.15,1.28-5.21,3.79-9.11c0.37-0.57,1-0.91,1.68-0.91h0
	c0.68,0,1.31,0.35,1.68,0.92C18.76,8.66,20,11.63,20,13.8V1.62H0z"/>
</svg>
