<?xml version="1.0" encoding="utf-8"?>
<!-- Generator: Adobe Illustrator 23.0.4, SVG Export Plug-In . SVG Version: 6.00 Build 0)  -->
<svg version="1.1" id="Layer_1" xmlns="http://www.w3.org/2000/svg" xmlns:xlink="http://www.w3.org/1999/xlink" x="0px" y="0px"
	 width="20px" height="20px" viewBox="0 0 20 20" style="enable-background:new 0 0 20 20;" xml:space="preserve">
<style type="text/css">
	.st0{fill:url(#SVGID_1_);}
	.st1{fill:#FFFFFF;}
</style>
<g>
	<linearGradient id="SVGID_1_" gradientUnits="userSpaceOnUse" x1="13.4997" y1="2.1529" x2="13.4997" y2="18.9006">
		<stop  offset="0" style="stop-color:#FFFFFF"/>
		<stop  offset="1" style="stop-color:#535353"/>
	</linearGradient>
	<rect x="7" y="2" class="st0" width="13" height="18"/>
	<path class="st1" d="M4.5,15h-1V6h1c0.18,0,0.35-0.1,0.44-0.26s0.08-0.36-0.02-0.51l-2-3c-0.19-0.28-0.65-0.28-0.83,0l-2,3
		c-0.1,0.15-0.11,0.35-0.02,0.51S0.32,6,0.5,6h1v9h-1c-0.18,0-0.35,0.1-0.44,0.26c-0.09,0.16-0.08,0.36,0.02,0.51l2,3
		C2.18,18.92,2.33,19,2.5,19s0.32-0.08,0.42-0.22l2-3c0.1-0.15,0.11-0.35,0.02-0.51C4.85,15.1,4.68,15,4.5,15z"/>
</g>
</svg>
