<svg version="1.1" id="Layer_1" xmlns="http://www.w3.org/2000/svg" xmlns:xlink="http://www.w3.org/1999/xlink" x="0px" y="0px"
	 width="30px" height="19px" viewBox="0 0 30 19" style="enable-background:new 0 0 30 19;" xml:space="preserve">
<style type="text/css">
	.st0{fill:#FFFFFF;}
</style>
<path class="st0" d="M27.7,0H2.3C1,0,0,1,0,2.3v14.3C0,18,1,19,2.3,19h25.3c1.3,0,2.3-1,2.3-2.3V2.3C30,1,29,0,27.7,0z M29,16.7
	c0,0.7-0.6,1.3-1.3,1.3H2.3C1.6,18,1,17.4,1,16.7V8h28V16.7z M29,4H1V2.3C1,1.6,1.6,1,2.3,1h25.3C28.4,1,29,1.6,29,2.3V4z M4.5,11h4
	C8.8,11,9,10.8,9,10.5S8.8,10,8.5,10h-4C4.2,10,4,10.2,4,10.5S4.2,11,4.5,11z M5.5,12h-1C4.2,12,4,12.2,4,12.5S4.2,13,4.5,13h1
	C5.8,13,6,12.8,6,12.5S5.8,12,5.5,12z M8.5,12h-1C7.2,12,7,12.2,7,12.5S7.2,13,7.5,13h1C8.8,13,9,12.8,9,12.5S8.8,12,8.5,12z
	 M11.5,12h-1c-0.3,0-0.5,0.2-0.5,0.5s0.2,0.5,0.5,0.5h1c0.3,0,0.5-0.2,0.5-0.5S11.8,12,11.5,12z M10.5,11h4c0.3,0,0.5-0.2,0.5-0.5
	S14.8,10,14.5,10h-4c-0.3,0-0.5,0.2-0.5,0.5S10.2,11,10.5,11z"/>
</svg>
