<svg version="1.1" id="Layer_1" xmlns="http://www.w3.org/2000/svg" xmlns:xlink="http://www.w3.org/1999/xlink" x="0px" y="0px"
	 width="20.1px" height="17.1px" viewBox="0 0 20.1 17.1" style="enable-background:new 0 0 20.1 17.1;" xml:space="preserve">
<style type="text/css">
	.st0{fill:#FFFFFF;}
</style>
<g>
	<path class="st0" d="M20,4.2c0.2-0.9,0-1.8-0.6-2.6c-0.6-0.7-1.7-1.6-4-1.6h-0.1c-3.5,0-6.2,1.7-7.6,3.6l0.4,1.1
		c1.1-2.3,4-3.8,6.6-3.8c0.1,0,0.2,0,0.3,0c0,0,0,0.1,0,0.2c-0.3,0.9-2.1,6.5-2.4,7.5c-0.5,1.5-1.1,2.5-1.7,3.1l0.3,0.8
		c0.9-0.6,1.9-1.8,2.7-4.1c0.2-0.5,0.3-1,0.5-1.4c0,0,0,0.1,0.1,0.1c0.2,0.3,0.8,0.4,1,0.4c0.3,0,1.1,0,1.9-0.4
		c0.8,0.8,1.2,1.9,1,3.1c-0.3,1.7-1.2,2.6-2.6,2.6c-0.9,0-1.3-0.2-1.4-0.5c-0.2-0.2-0.2-0.5-0.2-0.5c0-0.2,0.1-0.4,0.2-0.5
		c0.1-0.1,0.2-0.1,0.3,0c0.1,0,0.2,0,0.3,0c0.1-0.1,0.2-0.2,0.2-0.4s-0.2-0.4-0.4-0.4c-0.6,0-1.6,0.4-1.7,1.3
		c-0.1,0.4,0.1,0.8,0.3,1.1c0.4,0.5,1.2,0.7,2.1,0.7c2.4,0,4-1.7,4.2-3.5c0.3-1.4-0.2-2.7-1.3-3.4C19.2,5.9,19.7,5.1,20,4.2z
		 M18.7,4.1c-0.2,0.7-0.6,1.4-1.2,1.9c-0.5-0.2-1-0.3-1.5-0.3c-0.4,0-1,0.1-1.4,0.4c1.2-3.6,1.6-4.9,1.7-5C16.3,1,16.4,1,16.5,1h0.1
		h0.1c0.7,0.1,1.3,0.4,1.7,1C18.8,2.5,18.9,3.3,18.7,4.1z"/>
	<path class="st0" d="M7.4,4.4C7.3,4.2,7.2,4.1,7,4.1H5.2C5,4.1,4.8,4.2,4.8,4.4L0,16.8c0,0.2,0.1,0.3,0.2,0.3h1.9
		c0.1,0,0.2-0.1,0.2-0.1l1-2.7c0-0.1,0.1-0.1,0.2-0.1h5.1c0.1,0,0.1,0,0.2,0.1l1,2.7c0,0.1,0.1,0.1,0.2,0.1h2c0.2,0,0.3-0.2,0.2-0.3
		L7.4,4.4z M7.9,12.1H4.2C4.1,12.1,4,12,4,11.9l2-5.4c0-0.1,0.1-0.1,0.2,0l1.9,5.4C8.1,12,8,12.1,7.9,12.1z"/>
</g>
</svg>
