<svg version="1.1" id="Layer_1" xmlns="http://www.w3.org/2000/svg" xmlns:xlink="http://www.w3.org/1999/xlink" x="0px" y="0px"
	 width="60px" height="40px" viewBox="0 0 60 40" style="enable-background:new 0 0 60 40;" xml:space="preserve">
<style type="text/css">
	.st0{fill:#A3A3A3;}
</style>
<path class="st0" d="M3.1,40h53.8c1.7,0,3.1-1.4,3.1-3.1V3.1C60,1.4,58.6,0,56.9,0H3.1C1.4,0,0,1.4,0,3.1v33.8C0,38.6,1.4,40,3.1,40
	z M56.9,1C58.1,1,59,1.9,59,3.1v33.8c0,1.2-0.9,2.1-2.1,2.1H40V1H56.9z M39,1v38H27V1H39z M26,1v38H14V1H26z M1,3.1
	C1,1.9,1.9,1,3.1,1H13v38H3.1C1.9,39,1,38.1,1,36.9V3.1z"/>
</svg>
