<svg version="1.1" id="Layer_1" xmlns="http://www.w3.org/2000/svg" xmlns:xlink="http://www.w3.org/1999/xlink" x="0px" y="0px"
	 width="60px" height="40px" viewBox="0 0 60 40" style="enable-background:new 0 0 60 40;" xml:space="preserve">
<style type="text/css">
	.st0{fill:#A3A3A3;}
</style>
<path class="st0" d="M56.9,0H3.1C1.4,0,0,1.4,0,3.1v33.8C0,38.6,1.4,40,3.1,40h53.8c1.7,0,3.1-1.4,3.1-3.1V3.1C60,1.4,58.6,0,56.9,0
	z M3.1,39C1.9,39,1,38.1,1,36.9V3.1C1,1.9,1.9,1,3.1,1H44v38H3.1z M59,36.9c0,1.2-0.9,2.1-2.1,2.1H45V1h11.9C58.1,1,59,1.9,59,3.1
	V36.9z"/>
</svg>
