<svg version="1.1" id="Layer_1" xmlns="http://www.w3.org/2000/svg" xmlns:xlink="http://www.w3.org/1999/xlink" x="0px" y="0px"
	 width="20px" height="16px" viewBox="0 0 20 16" style="enable-background:new 0 0 20 16;" xml:space="preserve">
<style type="text/css">
	.st0{fill:#FFFFFF;}
</style>
<g>
	<path class="st0" d="M5.8,7.7c0,0.5,0.1,0.8,0.3,1S6.6,9,7,9s0.8-0.1,1-0.2V7.7c-0.2,0-0.3,0.1-0.4,0.1c-0.2,0-0.3-0.1-0.4-0.2
		c0-0.2-0.1-0.4-0.1-0.7V2.4c0-0.5-0.1-0.9-0.3-1.2C6.7,0.8,6.4,0.6,6.1,0.4s-0.7-0.3-1-0.3C4.7,0,4.3,0,3.9,0S3,0.1,2.6,0.2
		c-0.4,0-0.8,0.2-1.2,0.4C1.1,0.9,0.9,1.2,0.7,1.5S0.4,2.3,0.3,2.9h1.4c0-0.6,0.2-1.1,0.6-1.3s0.9-0.3,1.5-0.3c0.2,0,0.4,0,0.7,0
		c0.2,0,0.4,0.1,0.6,0.2s0.3,0.2,0.4,0.4s0.2,0.4,0.2,0.7S5.6,3.1,5.5,3.2C5.4,3.4,5.2,3.5,4.9,3.6C4.6,3.7,4.3,3.7,4,3.8
		C3.7,3.8,3.3,3.9,2.9,4C2.5,4,2.2,4.1,1.8,4.2C1.5,4.3,1.2,4.4,0.9,4.6C0.6,4.8,0.4,5.1,0.2,5.4C0.1,5.7,0,6.1,0,6.6
		C0,7,0.1,7.4,0.2,7.7C0.4,8,0.6,8.3,0.8,8.4c0.3,0.2,0.6,0.3,0.9,0.4C2.1,9,2.4,9,2.8,9C3.4,9,4,8.9,4.5,8.7S5.4,8.1,5.8,7.7z
		 M3.1,7.7c-0.2,0-0.4,0-0.6-0.1c-0.2,0-0.4,0-0.5-0.1C1.8,7.4,1.7,7.2,1.6,7.1C1.5,6.9,1.5,6.7,1.5,6.5c0-0.4,0.1-0.6,0.2-0.8
		c0.2-0.2,0.4-0.4,0.6-0.5C2.6,5.1,2.9,5,3.2,4.9c0.3,0,0.6-0.1,0.9-0.1c0.3,0,0.6-0.1,0.9-0.1c0.3-0.1,0.5-0.2,0.7-0.3v1.4
		c0,0.2,0,0.4-0.1,0.6S5.3,6.9,5.1,7.1C4.9,7.3,4.6,7.4,4.3,7.6C4,7.7,3.6,7.7,3.1,7.7z"/>
	<path class="st0" d="M19.6,7.7c-0.2,0-0.3-0.1-0.4-0.2c0-0.2-0.1-0.4-0.1-0.7V2.4c0-0.5-0.1-0.9-0.3-1.2c-0.2-0.3-0.4-0.6-0.7-0.7
		c-0.3-0.2-0.7-0.3-1-0.3C16.7,0,16.3,0,15.9,0c-0.5,0-0.9,0.1-1.4,0.2c-0.4,0.1-0.8,0.3-1.1,0.5s-0.6,0.5-0.8,0.9s-0.3,0.8-0.3,1.3
		h1.4c0-0.6,0.2-1.1,0.6-1.3c0.4-0.2,0.9-0.3,1.5-0.3c0.2,0,0.4,0,0.7,0c0.2,0,0.4,0.1,0.6,0.2s0.3,0.2,0.4,0.4s0.2,0.4,0.2,0.7
		s-0.1,0.5-0.2,0.6c-0.2,0.1-0.4,0.2-0.6,0.3c-0.3,0.1-0.6,0.1-0.9,0.2c-0.3,0-0.7,0.1-1.1,0.2c-0.4,0.1-0.7,0.2-1.1,0.2
		c-0.3,0.1-0.7,0.2-0.9,0.4c-0.3,0.2-0.5,0.4-0.7,0.8C12.1,5.7,12,6.1,12,6.6c0,0.4,0.1,0.8,0.2,1.1c0.1,0.3,0.3,0.6,0.6,0.7
		c0.3,0.2,0.6,0.3,0.9,0.4C14.1,9,14.4,9,14.8,9c0.6,0,1.1-0.1,1.7-0.3c0.5-0.2,1-0.5,1.3-1c0,0.5,0.1,0.8,0.3,1S18.6,9,19,9
		s0.8-0.1,1-0.2V7.7C19.8,7.7,19.7,7.7,19.6,7.7z M17.7,5.8c0,0.2,0,0.4-0.1,0.6S17.3,6.8,17.1,7s-0.5,0.4-0.8,0.5s-0.7,0.2-1.2,0.2
		c-0.2,0-0.4,0-0.6-0.1c-0.2,0-0.4-0.1-0.5-0.2S13.7,7.2,13.6,7c-0.1-0.2-0.1-0.4-0.1-0.6c0-0.4,0.1-0.6,0.2-0.8
		c0.2-0.2,0.4-0.4,0.6-0.5c0.3-0.1,0.5-0.2,0.9-0.2c0.3,0,0.6-0.1,0.9-0.1s0.6-0.1,0.9-0.1c0.3-0.1,0.5-0.2,0.7-0.3V5.8z"/>
	<path class="st0" d="M13.8,11.1c-0.2-0.1-0.4-0.1-0.5,0c-0.2,0.1-0.3,0.3-0.3,0.4V13H7v-1.5c0-0.2-0.1-0.4-0.3-0.4s-0.4-0.1-0.5,0
		l-3,2C3.1,13.2,3,13.3,3,13.5s0.1,0.3,0.2,0.4l3,2C6.3,16,6.4,16,6.5,16s0.2,0,0.2-0.1c0.2,0,0.3-0.2,0.3-0.4V14h6v1.5
		c0,0.2,0.1,0.4,0.3,0.4c0.1,0,0.2,0.1,0.2,0.1c0.1,0,0.2,0,0.3-0.1l3-2c0.1-0.1,0.2-0.2,0.2-0.4s-0.1-0.3-0.2-0.4L13.8,11.1z"/>
</g>
</svg>
