<?xml version="1.0" encoding="utf-8"?>
<!-- Generator: Adobe Illustrator 23.0.4, SVG Export Plug-In . SVG Version: 6.00 Build 0)  -->
<svg version="1.1" id="Layer_1" xmlns="http://www.w3.org/2000/svg" xmlns:xlink="http://www.w3.org/1999/xlink" x="0px" y="0px"
	 width="54.72px" height="54.72px" viewBox="0 0 54.72 54.72" style="enable-background:new 0 0 54.72 54.72;" xml:space="preserve"
	>
<style type="text/css">
	.st0{fill:#FFFFFF;}
	.st1{fill:#D3DCE4;}
	.st2{fill:#938DE9;}
</style>
<g>
	<path class="st0" d="M49.72,54.72H5c-2.76,0-5-2.24-5-5V5c0-2.76,2.24-5,5-5h44.72c2.76,0,5,2.24,5,5v44.72
		C54.72,52.48,52.48,54.72,49.72,54.72z"/>
	<path class="st1" d="M54.68,26.02H0.04v-21c0-2.76,2.24-5,5-5h44.64c2.76,0,5,2.24,5,5V26.02z"/>
	<rect x="5" y="30.19" class="st1" width="40" height="3"/>
	<rect x="5" y="36.25" class="st1" width="20" height="3"/>
	<rect x="5" y="43.18" class="st1" width="18.84" height="6.96"/>
	<rect x="27.84" y="43.18" class="st2" width="18.84" height="6.96"/>
</g>
</svg>
