<svg version="1.1" id="Layer_1" xmlns="http://www.w3.org/2000/svg" xmlns:xlink="http://www.w3.org/1999/xlink" x="0px" y="0px"
	 width="23" height="15" viewBox="0 0 512 415.8" style="enable-background:new 0 0 512 415.8;" xml:space="preserve" fill="#ffffff">
<path d="M512,49.4c-18.8,8.1-39.3,14-60.4,16.2c21.8-13,38.3-33.5,46.1-57.8c-20.1,12-42.9,20.8-66.6,25.3
	C411.9,12.7,384.6,0,354.4,0c-58.2,0-104.9,47.1-104.9,104.9c0,8.1,1,16.2,2.6,24C165,124.4,87.4,82.8,35.7,19.2
	c-9.1,15.6-14.3,33.5-14.3,53c0,36.4,18.5,68.5,46.8,87.4c-17.2-0.6-33.5-5.5-47.4-13.3v1.3c0,51,36.1,93.2,84.1,103
	c-8.8,2.3-18.2,3.6-27.6,3.6c-6.8,0-13.3-0.7-19.8-1.6c13.3,41.6,52,71.8,98.1,72.8C119.6,353.5,74.4,370,25.3,370
	c-8.8,0-16.9-0.3-25.3-1.3c46.5,29.9,101.7,47.1,161.1,47.1c193,0,298.6-159.8,298.6-298.6c0-4.5,0-9.1-0.3-13.6
	C479.8,88.7,497.7,70.2,512,49.4z"/>
</svg>
