<svg version="1.1" id="Layer_1" xmlns="http://www.w3.org/2000/svg" xmlns:xlink="http://www.w3.org/1999/xlink" x="0px" y="0px"
	 width="20px" height="11px" viewBox="0 0 20 11" style="enable-background:new 0 0 20 11;" xml:space="preserve">
<style type="text/css">
	.st0{fill:#fff;}
</style>
<g>
	<path class="st0" d="M12.8,3.1c-0.2-0.1-0.4-0.1-0.5,0C12.1,3.1,12,3.3,12,3.5V5H8V3.5c0-0.2-0.1-0.4-0.3-0.4C7.6,3,7.4,3,7.2,3.1
		l-3,2C4.1,5.2,4,5.3,4,5.5s0.1,0.3,0.2,0.4l3,2C7.3,8,7.4,8,7.5,8c0.1,0,0.2,0,0.2-0.1C7.9,7.9,8,7.7,8,7.5V6h4v1.5
		c0,0.2,0.1,0.4,0.3,0.4C12.3,8,12.4,8,12.5,8c0.1,0,0.2,0,0.3-0.1l3-2C15.9,5.8,16,5.7,16,5.5s-0.1-0.3-0.2-0.4L12.8,3.1z"/>
	<path class="st0" d="M2.5,0h-2C0.2,0,0,0.2,0,0.5S0.2,1,0.5,1H2v9H0.5C0.2,10,0,10.2,0,10.5S0.2,11,0.5,11h2C2.8,11,3,10.8,3,10.5
		v-10C3,0.2,2.8,0,2.5,0z"/>
	<path class="st0" d="M19.5,10H18V1h1.5C19.8,1,20,0.8,20,0.5S19.8,0,19.5,0h-2C17.2,0,17,0.2,17,0.5v10c0,0.3,0.2,0.5,0.5,0.5h2
		c0.3,0,0.5-0.2,0.5-0.5S19.8,10,19.5,10z"/>
</g>
</svg>
