<svg version="1.1" id="Layer_1" xmlns="http://www.w3.org/2000/svg" xmlns:xlink="http://www.w3.org/1999/xlink" x="0px" y="0px"
	 width="12px" height="11.5px" viewBox="0 0 12 11.5" style="enable-background:new 0 0 12 11.5;" xml:space="preserve">
<style type="text/css">
	.st0{fill:#FFFFFF;}
</style>
<path class="st0" d="M12,4.6c0-0.2-0.1-0.7-0.8-0.8L8.1,3.3L6.8,0.6C6.6,0.1,6.2,0,6,0S5.4,0.1,5.2,0.5L3.9,3.3L0.8,3.8
	C0.1,3.9,0,4.4,0,4.6C0,4.8,0.1,5,0.3,5.2l2.2,2.2L2,10.5c0,0.1,0,0.2,0,0.2c0,0.2,0,0.3,0.2,0.5c0.2,0.3,0.7,0.4,1.1,0.2L6,9.9
	l2.7,1.4c0.2,0.1,0.3,0.1,0.5,0.1s0.5-0.1,0.6-0.3C9.9,11,10,10.9,10,10.7c0-0.1,0-0.2,0-0.2l-0.5-3l2.2-2.2C11.9,5,12,4.8,12,4.6z
	 M8.4,7L9,10.4L6,8.8l-3,1.6L3.6,7L1.2,4.7l3.4-0.5l1.5-3l1.5,3l3.3,0.5L8.4,7z"/>
</svg>
