<svg version="1.1" id="Layer_1" xmlns="http://www.w3.org/2000/svg" xmlns:xlink="http://www.w3.org/1999/xlink" x="0px" y="0px"
	 width="12px" height="11.4px" viewBox="0 0 12 11.4" style="enable-background:new 0 0 12 11.4;" xml:space="preserve">
<style type="text/css">
	.st0{fill:#FFFFFF;}
</style>
<path class="st0" d="M12,4.4c0,0.1-0.1,0.2-0.2,0.3L9.2,7.3l0.6,3.6V11c0,0.1,0,0.2-0.1,0.3s-0.1,0.1-0.2,0.1c-0.1,0-0.2,0-0.3-0.1
	L6,9.7l-3.2,1.7c-0.1,0.1-0.2,0.1-0.3,0.1s-0.2,0-0.2-0.1c-0.1-0.1-0.1-0.2-0.1-0.3V11l0.6-3.6L0.2,4.8C0.1,4.7,0,4.5,0,4.4
	c0-0.2,0.1-0.3,0.4-0.3L4,3.6l1.6-3.3C5.7,0.1,5.9,0,6,0s0.3,0.1,0.4,0.3L8,3.6l3.6,0.5C11.9,4.1,12,4.3,12,4.4z"/>
</svg>
